<svg xmlns="http://www.w3.org/2000/svg" version="1.1" xmlns:xlink="http://www.w3.org/1999/xlink" xmlns:svgjs="http://svgjs.com/svgjs" width="1440" height="560" preserveAspectRatio="none" viewBox="0 0 1440 560"><g mask="url(&quot;#SvgjsMask1005&quot;)" fill="none"><rect width="1440" height="560" x="0" y="0" fill="rgba(25, 65, 145, 1)"></rect><path d="M709.22 592.12C840.42 581.98 932.07 321.6 1160.48 321.17 1388.89 320.74 1494.43 448.72 1611.74 449.97" stroke="rgba(200, 205, 210, 0.58)" stroke-width="2"></path><path d="M715.35 653.84C856.1 646.83 947.16 408.24 1218.9 400.48 1490.65 392.72 1590.62 245.48 1722.46 243.68" stroke="rgba(200, 205, 210, 0.58)" stroke-width="2"></path><path d="M623.12 636.36C754.52 633.62 847.92 466.44 1117.37 457.19 1386.82 447.94 1473.11 212.32 1611.62 205.19" stroke="rgba(200, 205, 210, 0.58)" stroke-width="2"></path><path d="M547.59 592.39C676.1 538.62 622.09 140.99 872.13 139.46 1122.17 137.93 1349.59 360.34 1521.22 363.46" stroke="rgba(200, 205, 210, 0.58)" stroke-width="2"></path><path d="M588.72 635.14C722.72 592.31 674.02 205.99 951.42 204.93 1228.81 203.87 1487.83 415.55 1676.81 417.73" stroke="rgba(200, 205, 210, 0.58)" stroke-width="2"></path></g><defs><mask id="SvgjsMask1005"><rect width="1440" height="560" fill="#ffffff"></rect></mask></defs></svg>